HIERARCHY
ROOT Hips
{
	OFFSET -3.958830 18.904000 13.208200
	CHANNELS 6 Xposition Yposition Zposition Zrotation Yrotation Xrotation 
	JOINT LHipJoint
	{
		OFFSET 0.000000 0.000000 0.000000
		CHANNELS 3 Zrotation Yrotation Xrotation
		JOINT LeftUpLeg
		{
			OFFSET 1.800000 -1.400000 0.085000
			CHANNELS 3 Zrotation Yrotation Xrotation
			JOINT LeftLeg
			{
				OFFSET 2.215000 -6.000000 0.000000
				CHANNELS 3 Zrotation Yrotation Xrotation
				JOINT LeftFoot
				{
					OFFSET 2.500000 -6.900000 0.000000
					CHANNELS 3 Zrotation Yrotation Xrotation
					JOINT LeftToeBase
					{
						OFFSET 0.200000 -0.500000 1.950000
						CHANNELS 3 Zrotation Yrotation Xrotation
						End Site
						{
							OFFSET 0.000000 0.000000 0.000000
						}
					}
				}
			}
		}
	}
	JOINT RHipJoint
	{
		OFFSET 0.000000 0.000000 0.000000
		CHANNELS 3 Zrotation Yrotation Xrotation
		JOINT RightUpLeg
		{
			OFFSET -1.800000 -1.400000 0.085000
			CHANNELS 3 Zrotation Yrotation Xrotation
			JOINT RightLeg
			{
				OFFSET -2.215000 -6.000000 0.000000
				CHANNELS 3 Zrotation Yrotation Xrotation
				JOINT RightFoot
				{
					OFFSET -2.500000 -6.900000 0.000000
					CHANNELS 3 Zrotation Yrotation Xrotation
					JOINT RightToeBase
					{
						OFFSET -0.200000 -0.500000 1.950000
						CHANNELS 3 Zrotation Yrotation Xrotation
						End Site
						{
							OFFSET 0.000000 0.000000 0.000000
						}
					}
				}
			}
		}
	}
	JOINT LowerBack
	{
		OFFSET 0.000000 0.000000 0.000000
		CHANNELS 3 Zrotation Yrotation Xrotation
		JOINT Spine
		{
			OFFSET -0.087000 1.940000 -0.288900
			CHANNELS 3 Zrotation Yrotation Xrotation
			JOINT Spine1
			{
				OFFSET 0.000000 1.950000 0.060000
				CHANNELS 3 Zrotation Yrotation Xrotation
				JOINT Neck
				{
					OFFSET 0.000000 0.000000 0.000000
					CHANNELS 3 Zrotation Yrotation Xrotation
					JOINT Neck1
					{
						OFFSET 0.000000 1.600000 0.340000
						CHANNELS 3 Zrotation Yrotation Xrotation
						JOINT Head
						{
							OFFSET 0.000000 1.667000 -0.240000
							CHANNELS 3 Zrotation Yrotation Xrotation
							End Site
							{
								OFFSET 0.000000 0.000000 0.000000
							}
						}
					}
				}
				JOINT LeftShoulder
				{
					OFFSET 0.000000 0.000000 0.000000
					CHANNELS 3 Zrotation Yrotation Xrotation
					JOINT LeftArm
					{
						OFFSET 2.700000 1.550000 -0.730000
						CHANNELS 3 Zrotation Yrotation Xrotation
						JOINT LeftForeArm
						{
							OFFSET 5.450000 0.000000 0.000000
							CHANNELS 3 Zrotation Yrotation Xrotation
							JOINT LeftHand
							{
								OFFSET 3.450000 0.000000 0.000000
								CHANNELS 3 Zrotation Yrotation Xrotation
								JOINT LeftHandIndex1
								{
									OFFSET 0.750000 0.000000 0.000000
									CHANNELS 3 Zrotation Yrotation Xrotation
									End Site
									{
										OFFSET 0.000000 0.000000 0.000000
									}
								}
							}
						}
					}
				}
				JOINT RightShoulder
				{
					OFFSET 0.000000 0.000000 0.000000
					CHANNELS 3 Zrotation Yrotation Xrotation
					JOINT RightArm
					{
						OFFSET -2.700000 1.550000 -0.730000
						CHANNELS 3 Zrotation Yrotation Xrotation
						JOINT RightForeArm
						{
							OFFSET -5.450000 0.000000 0.000000
							CHANNELS 3 Zrotation Yrotation Xrotation
							JOINT RightHand
							{
								OFFSET -3.450000 0.000000 0.000000
								CHANNELS 3 Zrotation Yrotation Xrotation
								JOINT RightHandIndex1
								{
									OFFSET -0.750000 0.000000 0.000000
									CHANNELS 3 Zrotation Yrotation Xrotation
									End Site
									{
										OFFSET 0.000000 0.000000 0.000000
									}
								}
							}
						}
					}
				}
			}
		}
	}
}
MOTION
Frames: 14
Frame Time: 0.016667
-0.257710 16.985150 -2.302070 -4.704236 0.781955 -0.306283 -15.058042 13.908567 2.692004 17.543210 -0.595382 -16.755850 -2.430269 6.237319 17.482157 -0.048994 4.207583 2.992133 0.096010 0.007810 0.060020 18.113461 -11.590321 2.229226 -15.554526 0.789097 -15.244065 6.293196 -7.497196 25.824893 -0.118945 -4.492127 2.771263 0.021020 0.089650 0.014310 -3.516480 -1.629275 -7.233660 7.253880 0.829333 8.511664 1.004826 1.145967 5.221797 0.911333 -2.765507 -10.066097 -8.028828 2.314662 39.125845 0.694470 0.327600 0.756410 -18.628084 -8.292127 4.095207 -41.991195 -2.732763 -2.770934 -44.557591 -17.497015 4.541554 -3.690727 3.304944 0.083980 0.056650 -0.061610 0.065600 17.309678 11.299100 6.861545 40.311274 -0.610025 -5.856094 34.241148 20.535017 3.106258 2.516997 -1.517588 -0.058640 0.052070 -0.028230 -0.046770 
-0.301700 16.973270 -2.314100 -4.590627 0.522803 -0.282003 -15.075743 13.926797 2.728451 17.801673 -0.632903 -17.601810 -2.365987 6.449871 18.715278 -0.047209 4.320353 2.934715 0.102650 0.016290 0.064640 18.094283 -11.567985 2.222172 -16.095765 0.820767 -15.729396 5.980121 -7.319382 25.531388 -0.104527 -4.406113 2.792966 0.025590 0.084410 0.014270 -3.459562 -1.703738 -7.278326 6.889679 0.916488 9.095716 1.211799 1.280574 5.132031 0.857285 -2.942043 -10.177815 -8.340249 2.635491 38.923473 0.854570 0.575140 0.302950 -18.318310 -8.320724 4.126321 -41.069605 -2.534453 -2.835427 -46.196612 -17.870492 4.861850 -3.682050 3.318829 0.093370 0.050540 -0.054660 0.064920 17.148025 11.535728 6.955191 39.517055 -0.732606 -5.911895 35.694894 20.953926 3.380335 2.510660 -1.530025 -0.058990 0.054810 -0.028940 -0.049670 
-0.385110 16.946980 -2.351190 -4.306841 0.081605 -0.263618 -15.116536 13.905654 2.877655 18.614858 -0.737397 -19.537614 -2.878256 7.168284 21.444557 -0.019260 4.675305 2.763174 0.130250 0.048060 0.087500 18.061700 -11.505435 2.175848 -17.107197 0.820475 -16.524658 5.053208 -6.859303 24.821122 -0.084269 -4.195020 2.848880 0.037030 0.052370 0.011380 -3.349168 -1.832783 -7.397488 6.110706 1.026731 10.329634 1.377238 1.508734 4.995408 0.808089 -3.294485 -10.486824 -9.065033 3.172723 38.962004 1.267500 0.874110 -0.821680 -17.469720 -8.409447 4.246378 -39.741070 -2.158352 -3.079491 -48.949815 -18.810016 5.533216 -3.642973 3.344300 0.121050 0.020830 -0.026590 0.063430 16.468650 12.059292 7.186401 38.599282 -0.877391 -6.118620 38.684227 21.942458 4.008497 2.507500 -1.555120 -0.050600 0.053600 -0.042100 -0.057200 
-0.478780 16.897220 -2.387940 -3.888015 -0.362825 -0.149430 -15.174362 13.814016 3.093550 19.643293 -0.891882 -21.917400 -3.472921 8.107122 24.663180 0.023109 5.190993 2.541446 0.146760 0.062740 0.108410 18.033518 -11.394679 2.114128 -18.610831 0.808881 -17.621629 4.049959 -6.413922 24.032759 -0.058462 -3.992176 2.902209 0.041630 0.028210 0.009210 -3.224882 -1.949865 -7.545135 5.260842 1.193412 11.634598 1.542318 1.769717 4.802768 0.864652 -3.587694 -10.797204 -9.565187 3.532713 38.495163 1.170810 1.307650 -1.840190 -16.641061 -8.396557 4.380978 -38.611335 -1.429378 -3.506469 -51.401489 -19.878790 6.218468 -3.613502 3.359308 0.147890 0.000860 -0.006350 0.060500 15.600725 12.485135 7.440150 37.464359 -1.280842 -6.433460 42.369492 23.434548 4.940457 2.497239 -1.588547 -0.050740 0.054590 -0.050510 -0.069140 
-0.583670 16.814950 -2.429050 -3.213553 -0.586655 0.099974 -15.255811 13.595361 3.439354 20.980180 -1.115936 -24.845941 -4.743284 9.578762 28.538665 0.117633 5.979627 2.228095 0.160160 0.080810 0.121870 18.016849 -11.216031 2.004160 -20.319534 0.707252 -18.558960 2.795556 -5.897708 22.942193 -0.035392 -3.774826 2.962090 0.045430 0.009020 0.006570 -3.093577 -2.047460 -7.722623 4.153610 1.369962 12.872249 1.616428 1.994852 4.748526 0.870967 -3.900108 -11.103327 -10.058296 3.947254 37.800476 1.331490 1.683040 -2.849050 -15.373782 -8.178262 4.555667 -37.499994 -0.576344 -3.991409 -54.217589 -21.641910 7.377265 -3.581714 3.382763 0.165210 -0.018200 0.013180 0.059680 14.391205 12.715389 7.648503 36.556318 -1.696222 -6.800397 46.870421 25.477665 6.314955 2.491071 -1.632418 -0.045790 0.056350 -0.059280 -0.072770 
-0.682480 16.715900 -2.478710 -2.589568 -1.101639 0.364917 -15.336222 13.299698 3.850256 22.626537 -1.268184 -27.721922 -6.224909 11.263549 32.123906 0.220692 6.859528 1.889910 0.191250 0.116780 0.150180 18.024960 -10.984446 1.896221 -22.147302 0.645928 -19.869464 1.438145 -5.457737 22.315267 -0.032849 -3.605490 2.994825 0.062640 -0.020920 0.006140 -2.998925 -2.122466 -7.934723 3.364747 1.389532 14.453406 1.373852 2.117609 4.594402 0.915971 -4.330707 -11.216702 -10.714090 4.512415 37.006299 1.440360 2.161390 -4.583280 -14.389554 -7.512275 4.629028 -36.195105 0.810186 -4.585770 -57.670243 -23.855943 8.976413 -3.542149 3.410181 0.194890 -0.045460 0.042390 0.057990 13.321950 12.592839 7.562037 35.204917 -1.633381 -6.916342 51.875364 27.339918 7.981214 2.482586 -1.676883 -0.040580 0.061890 -0.071760 -0.082610 
-0.787510 16.594140 -2.523700 -2.142052 -1.552000 0.638357 -15.426836 12.942850 4.295067 24.734859 -1.229700 -30.678056 -7.355947 13.068692 35.791273 0.348069 7.797085 1.543316 0.223710 0.154900 0.177200 18.043997 -10.701179 1.807203 -24.070455 0.588401 -20.976561 0.863256 -5.367640 22.124458 -0.047306 -3.565470 2.981991 0.079200 -0.054460 0.007040 -2.913246 -2.179375 -8.178225 2.717342 1.459241 16.149591 1.126473 2.290031 4.304997 0.971543 -4.744403 -11.232808 -11.352360 4.769621 36.166652 1.480730 2.314820 -6.378520 -14.002184 -6.658461 4.600183 -35.018468 2.528687 -5.247509 -60.583977 -26.318601 10.804590 -3.502077 3.437134 0.221140 -0.074140 0.071920 0.055910 12.806889 12.273967 7.468971 33.670093 -2.125244 -7.118097 56.872768 29.184050 9.829220 2.473368 -1.721641 -0.030060 0.063570 -0.084930 -0.090100 
-0.883810 16.458780 -2.577510 -1.703930 -2.091540 0.857016 -15.535117 12.510441 4.818396 27.227055 -1.032881 -33.802234 -8.768777 15.259735 39.584415 0.507830 8.850936 1.177862 0.251980 0.186590 0.207160 18.068703 -10.349746 1.731040 -26.080348 0.557008 -22.229221 0.810846 -5.578865 22.711951 -0.075385 -3.643117 2.927139 0.093340 -0.088770 0.006540 -2.816335 -2.245836 -8.469963 2.187573 1.644719 18.332062 0.970332 2.608005 3.796347 1.087448 -5.106951 -11.191818 -11.871490 4.752774 35.189003 1.180930 2.402610 -8.394580 -14.296875 -5.742247 4.453025 -33.650008 4.504347 -5.891898 -64.127539 -29.500374 13.467280 -3.465535 3.457886 0.253130 -0.102670 0.102840 0.051330 12.842004 11.889220 7.458614 31.872713 -3.373205 -7.501224 61.016152 31.307669 11.809075 2.459872 -1.750318 -0.025010 0.070580 -0.096070 -0.101620 
-0.963320 16.310400 -2.629970 -1.434389 -2.792720 0.937414 -15.624558 12.076845 5.294921 29.836903 -0.592311 -36.350010 -10.041785 17.494092 43.073802 0.676068 9.828534 0.850438 0.292820 0.229890 0.251230 18.109604 -10.014535 1.691298 -27.973385 0.530828 -23.368820 1.314178 -6.093821 23.989315 -0.125218 -3.840679 2.826066 0.111980 -0.139230 0.008420 -2.772029 -2.248702 -8.750120 2.182436 1.864218 20.670936 0.523461 3.070059 3.249453 1.262588 -5.384814 -11.067903 -12.253261 4.344439 34.338502 0.747180 2.222920 -10.886600 -14.859780 -4.781619 4.099279 -32.366172 5.976411 -6.353692 -66.375191 -32.682028 16.127351 -3.422405 3.470292 0.293060 -0.141670 0.145220 0.045180 12.966871 11.374126 7.518702 30.793567 -4.977607 -8.052248 63.687603 33.776129 13.761959 2.446881 -1.765807 -0.014020 0.073700 -0.114350 -0.116810 
-1.023260 16.163680 -2.690600 -1.174535 -3.487677 0.919011 -15.697917 11.658286 5.719535 32.241698 -0.082458 -38.644434 -11.075226 19.604879 46.266789 0.845407 10.675217 0.578686 0.331090 0.267560 0.295400 18.159234 -9.650190 1.745632 -29.889947 0.609552 -24.912403 2.513861 -6.964181 25.986479 -0.192893 -4.170627 2.676807 0.121950 -0.195320 0.012970 -2.766402 -2.262121 -9.047366 2.424123 1.817114 23.625131 -0.292343 3.383655 2.040687 1.535146 -5.719956 -10.966118 -12.754443 4.005392 33.669788 0.433360 1.995160 -13.491370 -16.409964 -4.171922 3.729102 -31.432513 7.934433 -7.117065 -65.954610 -33.960428 16.625867 -3.375984 3.459457 0.338560 -0.188110 0.192860 0.036120 13.887141 11.219002 7.637799 29.851835 -6.724986 -8.679836 65.106360 35.807240 15.229068 2.445075 -1.763700 0.001340 0.070940 -0.131760 -0.131450 
-1.067150 16.035110 -2.750250 -1.057900 -3.754008 0.539427 -15.763206 11.360236 6.022317 34.172813 0.313710 -40.474742 -11.225540 21.081166 49.156445 0.991138 11.283405 0.394443 0.358100 0.296780 0.319700 18.197093 -9.298657 1.856355 -31.321393 0.752417 -27.016176 3.428259 -8.105889 29.676375 -0.281916 -4.698568 2.473308 0.124140 -0.237610 0.015240 -2.751432 -2.397465 -9.305871 2.640689 1.486573 26.983731 -0.691617 3.407607 0.583647 1.717731 -6.269990 -10.890981 -13.871291 4.206206 33.716852 0.302550 1.881620 -15.060780 -18.424742 -3.654618 3.496015 -31.535557 10.286238 -8.169555 -65.307163 -36.347346 17.710857 -3.328932 3.458500 0.370070 -0.227150 0.231250 0.035170 15.515427 11.251454 7.694021 29.128803 -8.419758 -9.389052 64.371579 37.496804 15.898130 2.448255 -1.749529 0.018980 0.065900 -0.147520 -0.135050 
-1.093010 15.931100 -2.808770 -0.760786 -3.728356 0.372527 -15.814874 11.132668 6.218190 35.231772 0.418551 -42.228998 -10.923006 21.886370 51.406652 1.078292 11.654749 0.282775 0.385010 0.326680 0.337480 18.228515 -8.985545 2.000578 -32.154179 0.956390 -29.542728 3.403629 -9.028074 33.788670 -0.381793 -5.235883 2.277371 0.131160 -0.270640 0.015700 -2.737894 -2.548886 -9.488684 2.555273 1.128088 30.006212 -0.803290 3.251892 -0.908080 1.765195 -6.913975 -10.589470 -15.102405 4.452917 33.484561 0.438700 1.596120 -16.727580 -20.039388 -2.639675 3.107164 -33.164169 12.140036 -9.366358 -64.682032 -38.077133 18.304830 -3.286090 3.453975 0.398370 -0.262850 0.261990 0.035530 17.018642 10.803465 7.471734 29.392670 -9.630655 -10.145410 62.408890 38.585253 15.830523 2.445639 -1.726854 0.033050 0.066990 -0.158760 -0.135940 
-1.093980 15.850780 -2.845690 -0.345948 -3.564062 0.353414 -15.848915 11.019831 6.309605 35.398377 0.179057 -43.700261 -10.006185 22.103080 53.523278 1.142479 11.868563 0.221208 0.400620 0.348120 0.341760 18.241250 -8.775044 2.119517 -32.759747 1.010708 -31.425476 2.776727 -9.558914 36.947486 -0.464928 -5.640210 2.137623 0.132100 -0.292340 0.011420 -2.713585 -2.712666 -9.606818 2.311896 0.804878 32.240057 -0.627923 2.984863 -2.377303 1.747094 -7.527596 -10.245257 -16.451832 4.882348 33.845716 0.802910 1.264420 -17.625650 -21.682684 -1.583181 2.749430 -36.062781 13.780557 -10.836584 -62.644551 -39.726008 18.270899 -3.246606 3.437951 0.414950 -0.291900 0.283460 0.037680 18.703605 10.258812 7.133544 30.120788 -10.458078 -10.790249 59.242486 38.383324 14.694545 2.446443 -1.693995 0.046630 0.068640 -0.166950 -0.129580 
-1.085430 15.792840 -2.875630 -0.189715 -3.594010 0.357833 -15.876624 10.960502 6.416962 35.683662 0.142695 -44.809557 -9.385655 22.327709 55.096171 1.186919 12.039159 0.165435 0.422580 0.375390 0.361060 18.242419 -8.667034 2.132525 -32.342421 1.168611 -32.734629 1.262292 -9.355629 39.037195 -0.523705 -5.767872 2.092369 0.136520 -0.325170 0.010150 -2.683592 -2.823315 -9.675292 2.142073 0.459617 33.974056 -0.601730 2.693389 -3.397545 1.876354 -7.873068 -9.853332 -17.344171 5.464638 34.662098 0.765950 1.358330 -18.840310 -23.077452 -0.376741 2.369962 -40.003141 15.024113 -12.565367 -60.469252 -42.167159 18.579694 -3.201435 3.412291 0.444400 -0.324790 0.317460 0.036690 19.786668 9.341298 6.669206 31.488008 -10.810975 -11.565471 57.636917 40.798313 15.518205 2.447099 -1.673000 0.058080 0.071410 -0.178210 -0.132310 
